<mxfile host="app.diagrams.net" modified="2021-04-03T10:50:01.918Z" agent="5.0 (Windows)" etag="8gqcioWJ4bttECO9tsm7" version="14.4.8" type="github">
  <diagram name="Page-1" id="e7e014a7-5840-1c2e-5031-d8a46d1fe8dd">
    <mxGraphModel dx="1221" dy="691" grid="1" gridSize="10" guides="1" tooltips="1" connect="1" arrows="1" fold="1" page="1" pageScale="1" pageWidth="1169" pageHeight="826" background="#ffffff" math="0" shadow="0">
      <root>
        <mxCell id="0" />
        <mxCell id="1" parent="0" />
        <mxCell id="2" value="Customer" style="swimlane;whiteSpace=wrap" parent="1" vertex="1">
          <mxGeometry x="164.5" y="120" width="280" height="680" as="geometry" />
        </mxCell>
        <mxCell id="5" value="" style="ellipse;shape=startState;fillColor=#000000;" parent="2" vertex="1">
          <mxGeometry x="100" y="40" width="30" height="30" as="geometry" />
        </mxCell>
        <mxCell id="6" value="" style="edgeStyle=elbowEdgeStyle;elbow=horizontal;verticalAlign=bottom;endArrow=open;endSize=8;endFill=1;rounded=0" parent="2" source="5" target="7" edge="1">
          <mxGeometry x="100" y="40" as="geometry">
            <mxPoint x="115" y="110" as="targetPoint" />
          </mxGeometry>
        </mxCell>
        <mxCell id="7" value="Find Restaurant" style="rounded=1;" parent="2" vertex="1">
          <mxGeometry x="60" y="110" width="110" height="50" as="geometry" />
        </mxCell>
        <mxCell id="9" value="" style="endArrow=open;endFill=1;rounded=0;" parent="2" source="7" edge="1">
          <mxGeometry relative="1" as="geometry">
            <mxPoint x="115.5" y="192" as="targetPoint" />
          </mxGeometry>
        </mxCell>
        <mxCell id="10" value="View Timings &#xa;&#xa;&amp; Open status" style="rounded=1;" parent="2" vertex="1">
          <mxGeometry x="60" y="285" width="110" height="50" as="geometry" />
        </mxCell>
        <mxCell id="11" value="" style="endArrow=open;endFill=1;rounded=0;exitX=0.5;exitY=1;exitDx=0;exitDy=0;" parent="2" source="HBkLeVU5GFFPTy2UnmNG-42" target="10" edge="1">
          <mxGeometry relative="1" as="geometry">
            <mxPoint x="115" y="270" as="sourcePoint" />
          </mxGeometry>
        </mxCell>
        <mxCell id="HBkLeVU5GFFPTy2UnmNG-41" value="" style="ellipse;html=1;shape=endState;fillColor=#000000;strokeColor=#000000;" vertex="1" parent="2">
          <mxGeometry x="100" y="622" width="30" height="30" as="geometry" />
        </mxCell>
        <mxCell id="HBkLeVU5GFFPTy2UnmNG-42" value="" style="rhombus;whiteSpace=wrap;html=1;rounded=0;" vertex="1" parent="2">
          <mxGeometry x="82.5" y="188" width="65" height="58" as="geometry" />
        </mxCell>
        <mxCell id="HBkLeVU5GFFPTy2UnmNG-46" value="Restaurant Found" style="text;html=1;strokeColor=none;fillColor=none;align=center;verticalAlign=middle;whiteSpace=wrap;rounded=0;" vertex="1" parent="2">
          <mxGeometry x="125.5" y="252" width="65" height="20" as="geometry" />
        </mxCell>
        <mxCell id="HBkLeVU5GFFPTy2UnmNG-48" value="View Menu" style="rounded=1;whiteSpace=wrap;html=1;" vertex="1" parent="2">
          <mxGeometry x="65" y="372" width="100" height="48" as="geometry" />
        </mxCell>
        <mxCell id="HBkLeVU5GFFPTy2UnmNG-43" value="" style="endArrow=classic;html=1;exitX=1;exitY=0.5;exitDx=0;exitDy=0;" edge="1" parent="2" source="HBkLeVU5GFFPTy2UnmNG-42">
          <mxGeometry width="50" height="50" relative="1" as="geometry">
            <mxPoint x="335.5" y="382" as="sourcePoint" />
            <mxPoint x="175.5" y="132" as="targetPoint" />
            <Array as="points">
              <mxPoint x="235.5" y="217" />
              <mxPoint x="235.5" y="132" />
            </Array>
          </mxGeometry>
        </mxCell>
        <mxCell id="HBkLeVU5GFFPTy2UnmNG-49" value="" style="endArrow=classic;html=1;strokeColor=#000000;exitX=0.5;exitY=1;exitDx=0;exitDy=0;entryX=0.5;entryY=0;entryDx=0;entryDy=0;" edge="1" parent="2" source="10" target="HBkLeVU5GFFPTy2UnmNG-48">
          <mxGeometry width="50" height="50" relative="1" as="geometry">
            <mxPoint x="335.5" y="312" as="sourcePoint" />
            <mxPoint x="385.5" y="262" as="targetPoint" />
          </mxGeometry>
        </mxCell>
        <mxCell id="HBkLeVU5GFFPTy2UnmNG-50" value="Add/Remove food items" style="rounded=1;whiteSpace=wrap;html=1;" vertex="1" parent="2">
          <mxGeometry x="60" y="462" width="110" height="48" as="geometry" />
        </mxCell>
        <mxCell id="HBkLeVU5GFFPTy2UnmNG-51" value="" style="endArrow=classic;html=1;strokeColor=#000000;exitX=0.5;exitY=1;exitDx=0;exitDy=0;entryX=0.5;entryY=0;entryDx=0;entryDy=0;" edge="1" parent="2" source="HBkLeVU5GFFPTy2UnmNG-48" target="HBkLeVU5GFFPTy2UnmNG-50">
          <mxGeometry width="50" height="50" relative="1" as="geometry">
            <mxPoint x="335.5" y="312" as="sourcePoint" />
            <mxPoint x="385.5" y="262" as="targetPoint" />
          </mxGeometry>
        </mxCell>
        <mxCell id="HBkLeVU5GFFPTy2UnmNG-52" value="" style="endArrow=classic;html=1;strokeColor=#000000;exitX=0.5;exitY=1;exitDx=0;exitDy=0;" edge="1" parent="2" source="HBkLeVU5GFFPTy2UnmNG-50">
          <mxGeometry width="50" height="50" relative="1" as="geometry">
            <mxPoint x="335.5" y="312" as="sourcePoint" />
            <mxPoint x="115.5" y="542" as="targetPoint" />
          </mxGeometry>
        </mxCell>
        <mxCell id="HBkLeVU5GFFPTy2UnmNG-45" value="Restaurant not found" style="text;html=1;strokeColor=none;fillColor=none;align=center;verticalAlign=middle;whiteSpace=wrap;rounded=0;" vertex="1" parent="2">
          <mxGeometry x="147.5" y="168" width="90" height="20" as="geometry" />
        </mxCell>
        <mxCell id="HBkLeVU5GFFPTy2UnmNG-53" value="Find total cost" style="rounded=1;whiteSpace=wrap;html=1;" vertex="1" parent="2">
          <mxGeometry x="65" y="542" width="100" height="50" as="geometry" />
        </mxCell>
        <mxCell id="HBkLeVU5GFFPTy2UnmNG-54" value="" style="endArrow=classic;html=1;strokeColor=#000000;exitX=0.5;exitY=1;exitDx=0;exitDy=0;entryX=0.5;entryY=0;entryDx=0;entryDy=0;" edge="1" parent="2" source="HBkLeVU5GFFPTy2UnmNG-53" target="HBkLeVU5GFFPTy2UnmNG-41">
          <mxGeometry width="50" height="50" relative="1" as="geometry">
            <mxPoint x="125.5" y="592" as="sourcePoint" />
            <mxPoint x="175.5" y="542" as="targetPoint" />
          </mxGeometry>
        </mxCell>
        <mxCell id="3" value="Restaurant Manager" style="swimlane;whiteSpace=wrap" parent="1" vertex="1">
          <mxGeometry x="444.5" y="120" width="555.5" height="680" as="geometry" />
        </mxCell>
        <mxCell id="13" value="" style="ellipse;shape=startState;fillColor=#000000;" parent="3" vertex="1">
          <mxGeometry x="180.25" y="40" width="30" height="30" as="geometry" />
        </mxCell>
        <mxCell id="14" value="" style="edgeStyle=elbowEdgeStyle;elbow=horizontal;verticalAlign=bottom;endArrow=open;endSize=8;endFill=1;rounded=0" parent="3" source="13" target="15" edge="1">
          <mxGeometry x="40" y="20" as="geometry">
            <mxPoint x="55" y="90" as="targetPoint" />
          </mxGeometry>
        </mxCell>
        <mxCell id="15" value="Login" style="rounded=1;" parent="3" vertex="1">
          <mxGeometry x="145.25" y="110" width="100" height="40" as="geometry" />
        </mxCell>
        <mxCell id="HBkLeVU5GFFPTy2UnmNG-56" value="" style="rhombus;whiteSpace=wrap;html=1;rounded=0;strokeColor=#000000;" vertex="1" parent="3">
          <mxGeometry x="160.25" y="280" width="65" height="60" as="geometry" />
        </mxCell>
        <mxCell id="HBkLeVU5GFFPTy2UnmNG-61" value="Update Prices" style="rounded=1;whiteSpace=wrap;html=1;strokeColor=#000000;" vertex="1" parent="3">
          <mxGeometry x="375.5" y="400" width="92.75" height="30" as="geometry" />
        </mxCell>
        <mxCell id="HBkLeVU5GFFPTy2UnmNG-62" value="Update Timings" style="rounded=1;whiteSpace=wrap;html=1;strokeColor=#000000;" vertex="1" parent="3">
          <mxGeometry x="255.25" y="392.5" width="102.25" height="45" as="geometry" />
        </mxCell>
        <mxCell id="HBkLeVU5GFFPTy2UnmNG-60" value="Add/Remove item from menu" style="rounded=1;whiteSpace=wrap;html=1;strokeColor=#000000;" vertex="1" parent="3">
          <mxGeometry x="145.5" y="392.5" width="100" height="40" as="geometry" />
        </mxCell>
        <mxCell id="HBkLeVU5GFFPTy2UnmNG-63" value="Logout" style="rounded=1;whiteSpace=wrap;html=1;strokeColor=#000000;" vertex="1" parent="3">
          <mxGeometry x="45.5" y="392.5" width="80" height="40" as="geometry" />
        </mxCell>
        <mxCell id="HBkLeVU5GFFPTy2UnmNG-66" value="" style="endArrow=classic;html=1;strokeColor=#000000;exitX=0.5;exitY=1;exitDx=0;exitDy=0;entryX=0.5;entryY=0;entryDx=0;entryDy=0;" edge="1" parent="3" source="HBkLeVU5GFFPTy2UnmNG-56" target="HBkLeVU5GFFPTy2UnmNG-61">
          <mxGeometry width="50" height="50" relative="1" as="geometry">
            <mxPoint x="255.5" y="430" as="sourcePoint" />
            <mxPoint x="305.5" y="380" as="targetPoint" />
            <Array as="points">
              <mxPoint x="335.5" y="360" />
            </Array>
          </mxGeometry>
        </mxCell>
        <mxCell id="HBkLeVU5GFFPTy2UnmNG-67" value="" style="endArrow=classic;html=1;strokeColor=#000000;exitX=0.5;exitY=1;exitDx=0;exitDy=0;entryX=0.5;entryY=0;entryDx=0;entryDy=0;" edge="1" parent="3" source="HBkLeVU5GFFPTy2UnmNG-56" target="HBkLeVU5GFFPTy2UnmNG-63">
          <mxGeometry width="50" height="50" relative="1" as="geometry">
            <mxPoint x="255.5" y="430" as="sourcePoint" />
            <mxPoint x="305.5" y="380" as="targetPoint" />
            <Array as="points">
              <mxPoint x="135.5" y="370" />
            </Array>
          </mxGeometry>
        </mxCell>
        <mxCell id="HBkLeVU5GFFPTy2UnmNG-68" value="Idle/ View Search Hits" style="rounded=1;whiteSpace=wrap;html=1;strokeColor=#000000;" vertex="1" parent="3">
          <mxGeometry x="120" y="210" width="150" height="40" as="geometry" />
        </mxCell>
        <mxCell id="HBkLeVU5GFFPTy2UnmNG-69" value="" style="endArrow=classic;html=1;strokeColor=#000000;exitX=0.5;exitY=1;exitDx=0;exitDy=0;entryX=0.5;entryY=0;entryDx=0;entryDy=0;" edge="1" parent="3" source="15" target="HBkLeVU5GFFPTy2UnmNG-68">
          <mxGeometry width="50" height="50" relative="1" as="geometry">
            <mxPoint x="255.5" y="340" as="sourcePoint" />
            <mxPoint x="235.5" y="180" as="targetPoint" />
          </mxGeometry>
        </mxCell>
        <mxCell id="HBkLeVU5GFFPTy2UnmNG-70" value="" style="endArrow=classic;html=1;strokeColor=#000000;exitX=0.5;exitY=1;exitDx=0;exitDy=0;entryX=0.5;entryY=0;entryDx=0;entryDy=0;" edge="1" parent="3" source="HBkLeVU5GFFPTy2UnmNG-68" target="HBkLeVU5GFFPTy2UnmNG-56">
          <mxGeometry width="50" height="50" relative="1" as="geometry">
            <mxPoint x="255.5" y="340" as="sourcePoint" />
            <mxPoint x="305.5" y="290" as="targetPoint" />
          </mxGeometry>
        </mxCell>
        <mxCell id="HBkLeVU5GFFPTy2UnmNG-72" value="" style="rhombus;whiteSpace=wrap;html=1;rounded=0;strokeColor=#000000;" vertex="1" parent="3">
          <mxGeometry x="275.25" y="482.5" width="65" height="60" as="geometry" />
        </mxCell>
        <mxCell id="HBkLeVU5GFFPTy2UnmNG-73" value="" style="endArrow=classic;html=1;strokeColor=#000000;exitX=0.5;exitY=1;exitDx=0;exitDy=0;entryX=0;entryY=0.5;entryDx=0;entryDy=0;" edge="1" parent="3" source="HBkLeVU5GFFPTy2UnmNG-60" target="HBkLeVU5GFFPTy2UnmNG-72">
          <mxGeometry width="50" height="50" relative="1" as="geometry">
            <mxPoint x="235.5" y="460" as="sourcePoint" />
            <mxPoint x="115.5" y="480" as="targetPoint" />
          </mxGeometry>
        </mxCell>
        <mxCell id="HBkLeVU5GFFPTy2UnmNG-74" value="" style="endArrow=classic;html=1;strokeColor=#000000;entryX=0.5;entryY=0;entryDx=0;entryDy=0;exitX=0.5;exitY=1;exitDx=0;exitDy=0;" edge="1" parent="3" source="HBkLeVU5GFFPTy2UnmNG-62" target="HBkLeVU5GFFPTy2UnmNG-72">
          <mxGeometry width="50" height="50" relative="1" as="geometry">
            <mxPoint x="265.5" y="470" as="sourcePoint" />
            <mxPoint x="285.5" y="410" as="targetPoint" />
          </mxGeometry>
        </mxCell>
        <mxCell id="HBkLeVU5GFFPTy2UnmNG-75" value="" style="endArrow=classic;html=1;strokeColor=#000000;exitX=0.5;exitY=1;exitDx=0;exitDy=0;entryX=1;entryY=0.5;entryDx=0;entryDy=0;" edge="1" parent="3" source="HBkLeVU5GFFPTy2UnmNG-61" target="HBkLeVU5GFFPTy2UnmNG-72">
          <mxGeometry width="50" height="50" relative="1" as="geometry">
            <mxPoint x="235.5" y="460" as="sourcePoint" />
            <mxPoint x="285.5" y="410" as="targetPoint" />
          </mxGeometry>
        </mxCell>
        <mxCell id="HBkLeVU5GFFPTy2UnmNG-76" value="" style="endArrow=classic;html=1;strokeColor=#000000;exitX=0.5;exitY=1;exitDx=0;exitDy=0;entryX=0.5;entryY=0;entryDx=0;entryDy=0;" edge="1" parent="3" source="HBkLeVU5GFFPTy2UnmNG-63" target="HBkLeVU5GFFPTy2UnmNG-77">
          <mxGeometry width="50" height="50" relative="1" as="geometry">
            <mxPoint x="438.25" y="540" as="sourcePoint" />
            <mxPoint x="495.5" y="500" as="targetPoint" />
          </mxGeometry>
        </mxCell>
        <mxCell id="HBkLeVU5GFFPTy2UnmNG-77" value="" style="ellipse;html=1;shape=endState;fillColor=#000000;strokeColor=#000000;" vertex="1" parent="3">
          <mxGeometry x="70.5" y="510" width="30" height="30" as="geometry" />
        </mxCell>
        <mxCell id="HBkLeVU5GFFPTy2UnmNG-79" value="" style="endArrow=classic;html=1;strokeColor=#000000;exitX=0.5;exitY=1;exitDx=0;exitDy=0;entryX=1;entryY=0.5;entryDx=0;entryDy=0;" edge="1" parent="3" source="HBkLeVU5GFFPTy2UnmNG-72" target="HBkLeVU5GFFPTy2UnmNG-68">
          <mxGeometry width="50" height="50" relative="1" as="geometry">
            <mxPoint x="235.5" y="460" as="sourcePoint" />
            <mxPoint x="515.5" y="200" as="targetPoint" />
            <Array as="points">
              <mxPoint x="525.5" y="543" />
              <mxPoint x="525.5" y="230" />
            </Array>
          </mxGeometry>
        </mxCell>
        <mxCell id="HBkLeVU5GFFPTy2UnmNG-64" value="" style="endArrow=classic;html=1;strokeColor=#000000;entryX=0.5;entryY=0;entryDx=0;entryDy=0;" edge="1" parent="1" target="HBkLeVU5GFFPTy2UnmNG-60">
          <mxGeometry width="50" height="50" relative="1" as="geometry">
            <mxPoint x="640" y="460" as="sourcePoint" />
            <mxPoint x="750" y="500" as="targetPoint" />
          </mxGeometry>
        </mxCell>
        <mxCell id="HBkLeVU5GFFPTy2UnmNG-65" value="" style="endArrow=classic;html=1;strokeColor=#000000;entryX=0.5;entryY=0;entryDx=0;entryDy=0;" edge="1" parent="1" target="HBkLeVU5GFFPTy2UnmNG-62">
          <mxGeometry width="50" height="50" relative="1" as="geometry">
            <mxPoint x="640" y="460" as="sourcePoint" />
            <mxPoint x="750" y="500" as="targetPoint" />
          </mxGeometry>
        </mxCell>
        <mxCell id="HBkLeVU5GFFPTy2UnmNG-82" value="&lt;font style=&quot;font-size: 14px&quot;&gt;&lt;b&gt;Activity Diagram 1 : Restaurant Finder&lt;/b&gt;&lt;/font&gt;" style="rounded=0;whiteSpace=wrap;html=1;strokeColor=#000000;" vertex="1" parent="1">
          <mxGeometry x="164.5" y="80" width="835.5" height="40" as="geometry" />
        </mxCell>
      </root>
    </mxGraphModel>
  </diagram>
</mxfile>
